<?xml version="1.0" encoding="UTF-8"?>
<svg id="Ebene_1" xmlns="http://www.w3.org/2000/svg" version="1.1" viewBox="0 0 283.5 193.2">
  <!-- Generator: Adobe Illustrator 29.0.0, SVG Export Plug-In . SVG Version: 2.1.0 Build 186)  -->
  <defs>
    <style>
      .st0 {
        fill: #b4cd29;
      }
    </style>
  </defs>
  <g>
    <path class="st0" d="M42.7,136.4c-3,1-5.5,1.4-9,1.4-7.7,0-14.2-2.8-18.8-8.1-4.3-4.9-6.3-11.3-6.3-19.6,0-17.2,8.8-27,24.4-27s6.9.5,9.7,1.5v9.2c-2.1-.9-3.6-1.3-5.7-1.3-8.1,0-12.9,6.7-12.9,18.2s4.7,17.7,14.3,17.7,2.6-.2,4.2-.6v8.6ZM65.6,109.4v8.8h-4.1v18.3h-13.6v-18.3h-5.4v-8.8h23.1ZM47.9,84.6h13v18.2h-13v-18.2Z"/>
    <path class="st0" d="M96.7,137.8c-14.1-.3-21.5-6.4-21.5-17.8v-26.6h-4.3v-8.8h24.9v8.8h-5.6v25.6c0,6,1.8,8.7,6.5,9.8v9ZM102,128.7c4.7-1.4,6.5-4.8,6.5-11.9v-23.4h-5.4v-8.8h22.7v8.8h-4.4v25.6c0,11.2-6.8,17.7-19.4,18.7v-9Z"/>
    <path class="st0" d="M143.6,103.3h-11.9v-18.8h52.3v18.8h-11.9v-10h-28.4v10ZM165.3,127.7h6.6v8.8h-28.2v-8.8h6.6v-29.1h15v29.1Z"/>
  </g>
  <g>
    <path class="st0" d="M28.6,49.8h5.6v8.8H9.2v-8.8h5.1V15.4h-5.1V6.6h19.4v43.2ZM33.8,6.6h5.7c11.6,0,17.3,4.6,17.3,14.1s-1.8,8.3-5.3,10.5c-1.7,1.1-3.7,1.6-7.5,2v.5c5.8,0,8.2,1.8,9.9,7.2l2.9,8.7h4.6v8.8h-17.4l-5.2-16c-1-3.1-2.2-4.3-5-4.7v-9c5.3-.2,8.2-2.7,8.2-7.1s-2.6-6.4-7.8-6.4h-.4V6.6Z"/>
    <path class="st0" d="M90.7,14.2c-7,1.9-9.8,7.3-9.8,18.9s3.1,16.6,9.8,18v8.7c-16.3-1.2-25.4-11-25.4-27.1s9-26.2,25.4-27.3v8.8Z"/>
    <path class="st0" d="M147.4,58.6h-19.5v-8.8h5.1V15.4h-5.1V6.6h19.5v52ZM152.5,49.8h.5c5.9,0,8.7-2.2,8.7-6.7s-2.7-6.6-8.5-6.6h-.7v-8.7c3,0,4.1-.2,5.3-.8,2-1.1,3.1-3,3.1-5.5s-1.2-4.8-3.6-5.5c-1-.3-2-.5-4.8-.5V6.6h6.2c5.1,0,8.5.7,11,2.2,3.7,2.3,5.8,6.1,5.8,10.8,0,7.2-3.9,11.4-11.4,12.5,3,.2,4.2.5,5.8,1.3,4.2,1.9,6.5,5.9,6.5,11.1s-3,10.4-8,12.6c-2.5,1.1-5.8,1.6-10.9,1.6h-5v-8.8Z"/>
    <path class="st0" d="M210.8,49.8v8.8h-26.6v-8.8h5.8V15.4h-5.8V6.6h26.6v8.8h-5.8v34.4h5.8Z"/>
    <path class="st0" d="M217.9,15.4V6.6h25.2l11.3,23.1v28.8h-1.1l-21.5-43.2h-13.9ZM235.2,49.8h5.3v8.8h-22.6v-8.8h5.1v-29.1h5.1l7,15.1v14ZM259.5,58.6V15.4c0,0-5.3,0-5.3,0V6.6h22.6v8.8h-5.1v43.2h-12.2Z"/>
    <path class="st0" d="M95.8,5.4c16.4,1.3,25.4,10.8,25.4,26.8s-9,26.3-25.4,27.6v-8.7c6.8-1.6,9.8-7.2,9.8-18.2s-3-17.1-9.8-18.7V5.4Z"/>
  </g>
  <g>
    <path class="st0" d="M226.3,123.2c0,.2.1.4.2.6,0,.3.3,1.5.6.7.2-.4.3-.8.3-1.3,0-.5,0-1,0-1.5-.5-.6-.8-1.3-.8-1.3,0,0,.2,1.6-.4,2.8Z"/>
    <path class="st0" d="M225.3,124.3c-.8.4-1.3.9-1.9,1.3,1.2.8,2.4,1.7,3,2.1-.5-1.1-.7-2.3-.9-3.5,0,0,0,0-.1,0Z"/>
    <path class="st0" d="M228.8,122.8c0,.7,0,1.2,0,1.4,0,.5,0,2,.5.9.2-.4.4-1.2.7-2.2-.2,0-.4,0-.7,0-.2,0-.4,0-.6-.1Z"/>
    <path class="st0" d="M242.7,91.5c-1.1-12.8-15.6-22.6-30.2-17.6-27.2,9.4-10.9,50.4,1.4,65.5,4-.3,8.5-.8,13.3-1.5,0-3-.2-6.1-.9-8.6-.5-1.6-2.2-2.3-3.5-3.2-.6.4-1.4.7-2.6.8-3,.4-3.9.1-5.2-1.9-1.3-2-1-1.7-1.7-3.1-.8-1.4-3,.6-3.4-2.3-.4-2.9.4-4.8-2.3-7.6-2.7-2.8-1.9-6.6.2-8.8,2.1-2.3,1.3-6.9,3-8.1,1.2-.9,3.3-3.5,4-3.6.7-.2,1.8-.8,3.3-1.3,1.5-.5,2.1-2,3.8-2.2,1.6-.2,2.6,2.6,4.2,2.6,1.6,0,4.4-1,5.7.8,1.3,1.8.8,2.9,1.3,4.1.5,1.2.5,1.1,1.5,1.8.9.6,1.4.8,1.6,2.3.2,1.5-1,1.7-1.6,3-.7,1.3-.6,2.8-.9,3.9s-2.2,2.1-2.2,3.9,1.1,3.7,3.2,6.4c.9,1.2,3.5,4.5,2.6,5.5-.5.5-1.1,1-1.7,1.3h0c-1.5,1.6-3.5,3.2-4.2,5.6-.3,1.1-.3,2.3-.4,3.4,0,1.5,0,2.9,0,4.4,0,.1,0,.3,0,.5,5.7-1,11.6-2.3,17.2-4.1,0-.6,0-1.2,0-1.8,0-1.4,0-2.9-.2-4.3-.4-1.5-1.8-2.6-2.8-3.9-.3,0-.7,0-1,0-1.8,0-3.6-1.5-4.2-2.4-.7-.9-2-4.5-4-7-1.3-1.7-1.5-3.8-.6-5,.6-.9,1.6-2,1.5-2.9-.1-2.2,1.8-4.2,4.1-5.5,2.9-1.6,4.3-2.1,7.2-2.5,2.1-.2,4-.2,7.1.6,3.4.8,5.9,3.2,7.5,6.4s1.5,7.3.2,9.9c-1.3,2.6-2.2,2.1-3.3,2.4-1.2.2-.4,1.4-.3,2.2s-1,2.2-3,2.2c0,0-.1,0-.2,0-.7.8-1.5,1.8-2.2,2.4-.9.8-2,1.7-2.6,2.8-1,1.7-1,3.8-1,5.8,9.3-3.2,17.5-7.8,22.1-14,14-19.1-7.4-37.9-29.6-26.9Z"/>
    <path class="st0" d="M234.3,123.5c-.3,0-.5,0-.8-.2-1-.4-1.7-.4-2.5-.4-.1.6-.2,1.1-.3,1.3,0,.1-.3,2.8-.1,2.7,1.4-.5,2.6-2.1,3.7-3.4Z"/>
    <path class="st0" d="M246.7,123.5c.4.4.9.8,1.4,1.1.4.2.6-1.5.6-1.7,0-.4,0-.8,0-1.2-.7.8-1.6,1.1-2.5,1.2.2.2.3.4.5.5Z"/>
    <path class="st0" d="M254.8,121.3c-2-.5-4.2-1.7-4.2-1.7,0,0-.3.5-.9,1.3-.2,2.1-.3,4.6.6,4.4,1.1-.3,3.5-2.5,4.6-3.9Z"/>
  </g>
  <g>
    <g>
      <path class="st0" d="M99,161.7c-1.3-1.7-2.7-2.9-5.7-2.9s-4.7,1.3-4.7,3.8,2.2,3.8,5.7,4.4c4.6.8,7.4,2.5,7.4,6.9s-2.1,6.7-8.1,6.7-6.7-1.3-8.5-3.9l2.5-1.7c1.6,1.8,3,2.9,6.1,2.9s5.1-1.8,5.1-3.9-1.1-3.8-5.7-4.5c-4.5-.7-7.4-2.8-7.4-7s2.3-6.5,7.7-6.5,6.2,1.3,7.9,3.9l-2.3,1.7Z"/>
      <path class="st0" d="M104.8,163h2.2v-3.8h2.8v3.8h4v2.5h-4v8.8c0,2.4.3,3.4,2.6,3.4h1.4v2.6h-1.5c-4.1,0-5.3-1.7-5.3-5.4v-9.5h-2.2v-2.5Z"/>
      <path class="st0" d="M118.4,156.4h3.1v3.1h-3.1v-3.1ZM118.5,163h2.8v17.4h-2.8v-17.4Z"/>
      <path class="st0" d="M127.7,163v-1.3c0-3.6,1.2-5.4,5.3-5.4h.8v2.6h-.7c-2.3,0-2.6,1-2.6,3.4v.6h3.3v2.5h-3.3v14.9h-2.8v-14.9h-2.2v-2.5h2.2Z"/>
      <path class="st0" d="M136.1,163h2.2v-3.8h2.8v3.8h4v2.5h-4v8.8c0,2.4.3,3.4,2.6,3.4h1.4v2.6h-1.5c-4.1,0-5.3-1.7-5.3-5.4v-9.5h-2.2v-2.5Z"/>
      <path class="st0" d="M163,180.4h-2.8v-1.7c-.9,1.3-2.1,2-4.7,2-3.7,0-6.3-1.9-6.3-6.8v-10.8h2.8v10.8c0,3.5,1.9,4.3,4,4.3s4.2-1.8,4.2-4.2v-10.8h2.8v17.4Z"/>
      <path class="st0" d="M168.3,163h2.8v1.7c.9-1.3,2.1-2,4.7-2,3.7,0,6.3,1.9,6.3,6.8v10.8h-2.8v-10.8c0-3.5-1.9-4.3-4-4.3s-4.2,1.8-4.2,4.2v10.8h-2.8v-17.4Z"/>
      <path class="st0" d="M198,163h2.8v17c0,4.8-2.8,7.2-7.4,7.2s-4.9-.8-6.1-2.9l2.2-1.5c.7,1.3,1.9,1.9,4.1,1.9s4.4-1.7,4.4-4.7v-1.2c-.9,1.2-2.4,1.8-4.7,1.8-4.7,0-7-3.3-7-7.9v-2.3c0-5,2.6-7.8,7-7.8s3.8.7,4.7,2v-1.7ZM198,172.8v-2.3c0-3.3-1.6-5.3-4.4-5.3s-4.4,2-4.4,5.3v2.3c0,3,1.5,5.4,4.4,5.4s4.4-2.4,4.4-5.4Z"/>
    </g>
    <rect class="st0" x="215.4" y="167.7" width="61.4" height="2.2"/>
    <rect class="st0" x="9.2" y="167.7" width="61.4" height="2.2"/>
  </g>
</svg>